<svg xmlns="http://www.w3.org/2000/svg" width="600" height="90" viewBox="0 0 600 90">
  <defs>
    <linearGradient id="a" x1="0" y1="1" x2="0.1" y2="0"><stop offset="0%" stop-color="#8db86a"/><stop offset="100%" stop-color="#d2eeaa"/></linearGradient>
    <linearGradient id="b" x1="0" y1="1" x2="0" y2="0"><stop offset="0%" stop-color="#9cc47a"/><stop offset="100%" stop-color="#ddf2b8"/></linearGradient>
    <linearGradient id="c" x1="0" y1="1" x2="0.1" y2="0"><stop offset="0%" stop-color="#7aaa58"/><stop offset="100%" stop-color="#c8e89a"/></linearGradient>
    <linearGradient id="d" x1="0" y1="1" x2="0" y2="0"><stop offset="0%" stop-color="#a8cc88"/><stop offset="100%" stop-color="#e8f8d0"/></linearGradient>
    <linearGradient id="e" x1="0" y1="1" x2="0.1" y2="0"><stop offset="0%" stop-color="#90bc68"/><stop offset="100%" stop-color="#d8f0b0"/></linearGradient>
    <linearGradient id="f" x1="0" y1="1" x2="0" y2="0"><stop offset="0%" stop-color="#b0d490"/><stop offset="100%" stop-color="#eefadc"/></linearGradient>
  </defs>
  <!-- Dense background layer -->
  <g fill="none" stroke-linecap="round" opacity="0.4" stroke-width="1.2">
    <path d="M1,90 C-1,60 6,30 3,2" stroke="url(#c)"/><path d="M5,90 C8,55 2,28 7,0" stroke="url(#a)"/>
    <path d="M9,90 C6,58 13,25 10,1" stroke="url(#c)"/><path d="M14,90 C17,52 11,30 16,3" stroke="url(#a)"/>
    <path d="M18,90 C15,56 22,22 19,0" stroke="url(#c)"/><path d="M23,90 C26,50 20,28 25,2" stroke="url(#a)"/>
    <path d="M27,90 C24,54 31,24 28,1" stroke="url(#c)"/><path d="M32,90 C35,48 29,30 34,3" stroke="url(#a)"/>
    <path d="M36,90 C33,52 40,20 37,0" stroke="url(#c)"/><path d="M41,90 C44,46 38,28 43,2" stroke="url(#a)"/>
    <path d="M45,90 C42,50 49,22 46,1" stroke="url(#c)"/><path d="M50,90 C53,44 47,30 52,3" stroke="url(#a)"/>
    <path d="M54,90 C51,48 58,18 55,0" stroke="url(#c)"/><path d="M59,90 C62,42 56,28 61,2" stroke="url(#a)"/>
    <path d="M63,90 C60,46 67,20 64,1" stroke="url(#c)"/><path d="M68,90 C71,40 65,30 70,3" stroke="url(#a)"/>
    <path d="M72,90 C69,44 76,16 73,0" stroke="url(#c)"/><path d="M77,90 C80,38 74,28 79,2" stroke="url(#a)"/>
    <path d="M81,90 C78,42 85,18 82,1" stroke="url(#c)"/><path d="M86,90 C89,36 83,30 88,3" stroke="url(#a)"/>
    <path d="M90,90 C87,40 94,14 91,0" stroke="url(#c)"/><path d="M95,90 C98,34 92,28 97,2" stroke="url(#a)"/>
    <path d="M99,90 C96,38 103,16 100,1" stroke="url(#c)"/><path d="M104,90 C107,32 101,30 106,3" stroke="url(#a)"/>
    <path d="M108,90 C105,36 112,12 109,0" stroke="url(#c)"/><path d="M113,90 C116,30 110,28 115,2" stroke="url(#a)"/>
    <path d="M117,90 C114,34 121,14 118,1" stroke="url(#c)"/><path d="M122,90 C125,28 119,26 124,3" stroke="url(#a)"/>
    <path d="M126,90 C123,32 130,10 127,0" stroke="url(#c)"/><path d="M131,90 C134,30 128,28 133,2" stroke="url(#a)"/>
    <path d="M135,90 C132,34 139,12 136,1" stroke="url(#c)"/><path d="M140,90 C143,28 137,26 142,3" stroke="url(#a)"/>
    <path d="M144,90 C141,32 148,14 145,0" stroke="url(#c)"/><path d="M149,90 C152,26 146,28 151,2" stroke="url(#a)"/>
    <path d="M153,90 C150,30 157,10 154,1" stroke="url(#c)"/><path d="M158,90 C161,24 155,26 160,3" stroke="url(#a)"/>
    <path d="M162,90 C159,28 166,12 163,0" stroke="url(#c)"/><path d="M167,90 C170,22 164,28 169,2" stroke="url(#a)"/>
    <path d="M171,90 C168,26 175,8 172,1" stroke="url(#c)"/><path d="M176,90 C179,20 173,26 178,3" stroke="url(#a)"/>
    <path d="M180,90 C177,24 184,10 181,0" stroke="url(#c)"/><path d="M185,90 C188,18 182,28 187,2" stroke="url(#a)"/>
    <path d="M189,90 C186,22 193,6 190,1" stroke="url(#c)"/><path d="M194,90 C197,16 191,26 196,3" stroke="url(#a)"/>
    <path d="M198,90 C195,20 202,8 199,0" stroke="url(#c)"/><path d="M203,90 C206,14 200,28 205,2" stroke="url(#a)"/>
    <path d="M210,90 C207,22 214,10 211,1" stroke="url(#c)"/><path d="M215,90 C218,16 212,26 217,3" stroke="url(#a)"/>
    <path d="M220,90 C217,24 224,6 221,0" stroke="url(#c)"/><path d="M225,90 C228,18 222,28 227,2" stroke="url(#a)"/>
    <path d="M230,90 C227,20 234,8 231,1" stroke="url(#c)"/><path d="M235,90 C238,14 232,26 237,3" stroke="url(#a)"/>
    <path d="M240,90 C237,22 244,4 241,0" stroke="url(#c)"/><path d="M245,90 C248,16 242,28 247,2" stroke="url(#a)"/>
    <path d="M250,90 C247,18 254,6 251,1" stroke="url(#c)"/><path d="M255,90 C258,12 252,26 257,3" stroke="url(#a)"/>
    <path d="M260,90 C257,20 264,8 261,0" stroke="url(#c)"/><path d="M265,90 C268,14 262,28 267,2" stroke="url(#a)"/>
    <path d="M270,90 C267,16 274,4 271,1" stroke="url(#c)"/><path d="M275,90 C278,10 272,26 277,3" stroke="url(#a)"/>
    <path d="M280,90 C277,18 284,6 281,0" stroke="url(#c)"/><path d="M285,90 C288,12 282,28 287,2" stroke="url(#a)"/>
    <path d="M290,90 C287,14 294,8 291,1" stroke="url(#c)"/><path d="M295,90 C298,8 292,26 297,3" stroke="url(#a)"/>
    <path d="M300,90 C297,16 304,4 301,0" stroke="url(#c)"/><path d="M305,90 C308,10 302,28 307,2" stroke="url(#a)"/>
    <path d="M310,90 C307,12 314,6 311,1" stroke="url(#c)"/><path d="M315,90 C318,6 312,26 317,3" stroke="url(#a)"/>
    <path d="M320,90 C317,14 324,8 321,0" stroke="url(#c)"/><path d="M325,90 C328,8 322,28 327,2" stroke="url(#a)"/>
    <path d="M330,90 C327,10 334,4 331,1" stroke="url(#c)"/><path d="M335,90 C338,4 332,26 337,3" stroke="url(#a)"/>
    <path d="M340,90 C337,12 344,6 341,0" stroke="url(#c)"/><path d="M345,90 C348,6 342,28 347,2" stroke="url(#a)"/>
    <path d="M350,90 C347,8 354,8 351,1" stroke="url(#c)"/><path d="M355,90 C358,10 352,26 357,3" stroke="url(#a)"/>
    <path d="M360,90 C357,14 364,4 361,0" stroke="url(#c)"/><path d="M365,90 C368,8 362,28 367,2" stroke="url(#a)"/>
    <path d="M370,90 C367,10 374,6 371,1" stroke="url(#c)"/><path d="M375,90 C378,12 372,26 377,3" stroke="url(#a)"/>
    <path d="M380,90 C377,16 384,8 381,0" stroke="url(#c)"/><path d="M385,90 C388,6 382,28 387,2" stroke="url(#a)"/>
    <path d="M390,90 C387,12 394,4 391,1" stroke="url(#c)"/><path d="M395,90 C398,10 392,26 397,3" stroke="url(#a)"/>
    <path d="M400,90 C397,14 404,6 401,0" stroke="url(#c)"/><path d="M405,90 C408,8 402,28 407,2" stroke="url(#a)"/>
    <path d="M410,90 C407,10 414,8 411,1" stroke="url(#c)"/><path d="M415,90 C418,12 412,26 417,3" stroke="url(#a)"/>
    <path d="M420,90 C417,16 424,4 421,0" stroke="url(#c)"/><path d="M425,90 C428,6 422,28 427,2" stroke="url(#a)"/>
    <path d="M430,90 C427,12 434,6 431,1" stroke="url(#c)"/><path d="M435,90 C438,10 432,26 437,3" stroke="url(#a)"/>
    <path d="M440,90 C437,14 444,8 441,0" stroke="url(#c)"/><path d="M445,90 C448,8 442,28 447,2" stroke="url(#a)"/>
    <path d="M450,90 C447,10 454,4 451,1" stroke="url(#c)"/><path d="M455,90 C458,12 452,26 457,3" stroke="url(#a)"/>
    <path d="M460,90 C457,16 464,6 461,0" stroke="url(#c)"/><path d="M465,90 C468,6 462,28 467,2" stroke="url(#a)"/>
    <path d="M470,90 C467,12 474,8 471,1" stroke="url(#c)"/><path d="M475,90 C478,10 472,26 477,3" stroke="url(#a)"/>
    <path d="M480,90 C477,14 484,4 481,0" stroke="url(#c)"/><path d="M485,90 C488,8 482,28 487,2" stroke="url(#a)"/>
    <path d="M490,90 C487,10 494,6 491,1" stroke="url(#c)"/><path d="M495,90 C498,12 492,26 497,3" stroke="url(#a)"/>
    <path d="M500,90 C497,16 504,8 501,0" stroke="url(#c)"/><path d="M505,90 C508,6 502,28 507,2" stroke="url(#a)"/>
    <path d="M510,90 C507,12 514,4 511,1" stroke="url(#c)"/><path d="M515,90 C518,10 512,26 517,3" stroke="url(#a)"/>
    <path d="M520,90 C517,14 524,6 521,0" stroke="url(#c)"/><path d="M525,90 C528,8 522,28 527,2" stroke="url(#a)"/>
    <path d="M530,90 C527,10 534,8 531,1" stroke="url(#c)"/><path d="M535,90 C538,12 532,26 537,3" stroke="url(#a)"/>
    <path d="M540,90 C537,16 544,4 541,0" stroke="url(#c)"/><path d="M545,90 C548,6 542,28 547,2" stroke="url(#a)"/>
    <path d="M550,90 C547,12 554,6 551,1" stroke="url(#c)"/><path d="M555,90 C558,10 552,26 557,3" stroke="url(#a)"/>
    <path d="M560,90 C557,14 564,8 561,0" stroke="url(#c)"/><path d="M565,90 C568,8 562,28 567,2" stroke="url(#a)"/>
    <path d="M570,90 C567,10 574,4 571,1" stroke="url(#c)"/><path d="M575,90 C578,12 572,26 577,3" stroke="url(#a)"/>
    <path d="M580,90 C577,16 584,6 581,0" stroke="url(#c)"/><path d="M585,90 C588,6 582,28 587,2" stroke="url(#a)"/>
    <path d="M590,90 C587,12 594,8 591,1" stroke="url(#c)"/><path d="M595,90 C598,10 592,26 597,3" stroke="url(#a)"/>
  </g>
  <!-- Mid wispy layer -->
  <g fill="none" stroke-linecap="round" opacity="0.6" stroke-width="0.8">
    <path d="M2,90 Q8,42 -2,5" stroke="url(#b)"/><path d="M7,90 Q1,48 10,3" stroke="url(#d)"/>
    <path d="M13,90 Q18,38 8,8" stroke="url(#e)"/><path d="M19,90 Q13,44 22,1" stroke="url(#f)"/>
    <path d="M25,90 Q30,36 20,6" stroke="url(#b)"/><path d="M31,90 Q25,42 34,4" stroke="url(#d)"/>
    <path d="M37,90 Q42,34 32,9" stroke="url(#e)"/><path d="M43,90 Q37,40 46,2" stroke="url(#f)"/>
    <path d="M49,90 Q54,32 44,7" stroke="url(#b)"/><path d="M55,90 Q49,38 58,5" stroke="url(#d)"/>
    <path d="M61,90 Q66,30 56,10" stroke="url(#e)"/><path d="M67,90 Q61,36 70,3" stroke="url(#f)"/>
    <path d="M73,90 Q78,28 68,8" stroke="url(#b)"/><path d="M79,90 Q73,34 82,1" stroke="url(#d)"/>
    <path d="M85,90 Q90,26 80,6" stroke="url(#e)"/><path d="M91,90 Q85,32 94,4" stroke="url(#f)"/>
    <path d="M97,90 Q102,24 92,9" stroke="url(#b)"/><path d="M103,90 Q97,30 106,2" stroke="url(#d)"/>
    <path d="M109,90 Q114,22 104,7" stroke="url(#e)"/><path d="M115,90 Q109,28 118,5" stroke="url(#f)"/>
    <path d="M121,90 Q126,20 116,10" stroke="url(#b)"/><path d="M127,90 Q121,26 130,3" stroke="url(#d)"/>
    <path d="M133,90 Q138,18 128,8" stroke="url(#e)"/><path d="M139,90 Q133,24 142,1" stroke="url(#f)"/>
    <path d="M145,90 Q150,16 140,6" stroke="url(#b)"/><path d="M151,90 Q145,22 154,4" stroke="url(#d)"/>
    <path d="M157,90 Q162,14 152,9" stroke="url(#e)"/><path d="M163,90 Q157,20 166,2" stroke="url(#f)"/>
    <path d="M169,90 Q174,12 164,7" stroke="url(#b)"/><path d="M175,90 Q169,18 178,5" stroke="url(#d)"/>
    <path d="M181,90 Q186,10 176,10" stroke="url(#e)"/><path d="M187,90 Q181,16 190,3" stroke="url(#f)"/>
    <path d="M193,90 Q198,8 188,8" stroke="url(#b)"/><path d="M199,90 Q193,14 202,1" stroke="url(#d)"/>
    <path d="M205,90 Q210,6 200,6" stroke="url(#e)"/><path d="M211,90 Q205,12 214,4" stroke="url(#f)"/>
    <path d="M220,90 Q225,10 215,9" stroke="url(#b)"/><path d="M226,90 Q220,16 229,2" stroke="url(#d)"/>
    <path d="M232,90 Q237,8 227,7" stroke="url(#e)"/><path d="M238,90 Q232,14 241,5" stroke="url(#f)"/>
    <path d="M244,90 Q249,6 239,10" stroke="url(#b)"/><path d="M250,90 Q244,12 253,3" stroke="url(#d)"/>
    <path d="M256,90 Q261,4 251,8" stroke="url(#e)"/><path d="M262,90 Q256,10 265,1" stroke="url(#f)"/>
    <path d="M268,90 Q273,8 263,6" stroke="url(#b)"/><path d="M274,90 Q268,14 277,4" stroke="url(#d)"/>
    <path d="M280,90 Q285,6 275,9" stroke="url(#e)"/><path d="M286,90 Q280,12 289,2" stroke="url(#f)"/>
    <path d="M292,90 Q297,4 287,7" stroke="url(#b)"/><path d="M298,90 Q292,10 301,5" stroke="url(#d)"/>
    <path d="M304,90 Q309,8 299,10" stroke="url(#e)"/><path d="M310,90 Q304,14 313,3" stroke="url(#f)"/>
    <path d="M316,90 Q321,6 311,8" stroke="url(#b)"/><path d="M322,90 Q316,12 325,1" stroke="url(#d)"/>
    <path d="M328,90 Q333,4 323,6" stroke="url(#e)"/><path d="M334,90 Q328,10 337,4" stroke="url(#f)"/>
    <path d="M340,90 Q345,8 335,9" stroke="url(#b)"/><path d="M346,90 Q340,14 349,2" stroke="url(#d)"/>
    <path d="M352,90 Q357,6 347,7" stroke="url(#e)"/><path d="M358,90 Q352,12 361,5" stroke="url(#f)"/>
    <path d="M364,90 Q369,4 359,10" stroke="url(#b)"/><path d="M370,90 Q364,10 373,3" stroke="url(#d)"/>
    <path d="M376,90 Q381,8 371,8" stroke="url(#e)"/><path d="M382,90 Q376,14 385,1" stroke="url(#f)"/>
    <path d="M388,90 Q393,6 383,6" stroke="url(#b)"/><path d="M394,90 Q388,12 397,4" stroke="url(#d)"/>
    <path d="M400,90 Q405,4 395,9" stroke="url(#e)"/><path d="M406,90 Q400,10 409,2" stroke="url(#f)"/>
    <path d="M412,90 Q417,8 407,7" stroke="url(#b)"/><path d="M418,90 Q412,14 421,5" stroke="url(#d)"/>
    <path d="M424,90 Q429,6 419,10" stroke="url(#e)"/><path d="M430,90 Q424,12 433,3" stroke="url(#f)"/>
    <path d="M436,90 Q441,4 431,8" stroke="url(#b)"/><path d="M442,90 Q436,10 445,1" stroke="url(#d)"/>
    <path d="M448,90 Q453,8 443,6" stroke="url(#e)"/><path d="M454,90 Q448,14 457,4" stroke="url(#f)"/>
    <path d="M460,90 Q465,6 455,9" stroke="url(#b)"/><path d="M466,90 Q460,12 469,2" stroke="url(#d)"/>
    <path d="M472,90 Q477,4 467,7" stroke="url(#e)"/><path d="M478,90 Q472,10 481,5" stroke="url(#f)"/>
    <path d="M484,90 Q489,8 479,10" stroke="url(#b)"/><path d="M490,90 Q484,14 493,3" stroke="url(#d)"/>
    <path d="M496,90 Q501,6 491,8" stroke="url(#e)"/><path d="M502,90 Q496,12 505,1" stroke="url(#f)"/>
    <path d="M508,90 Q513,4 503,6" stroke="url(#b)"/><path d="M514,90 Q508,10 517,4" stroke="url(#d)"/>
    <path d="M520,90 Q525,8 515,9" stroke="url(#e)"/><path d="M526,90 Q520,14 529,2" stroke="url(#f)"/>
    <path d="M532,90 Q537,6 527,7" stroke="url(#b)"/><path d="M538,90 Q532,12 541,5" stroke="url(#d)"/>
    <path d="M544,90 Q549,4 539,10" stroke="url(#e)"/><path d="M550,90 Q544,10 553,3" stroke="url(#f)"/>
    <path d="M556,90 Q561,8 551,8" stroke="url(#b)"/><path d="M562,90 Q556,14 565,1" stroke="url(#d)"/>
    <path d="M568,90 Q573,6 563,6" stroke="url(#e)"/><path d="M574,90 Q568,12 577,4" stroke="url(#f)"/>
    <path d="M580,90 Q585,4 575,9" stroke="url(#b)"/><path d="M586,90 Q580,10 589,2" stroke="url(#d)"/>
    <path d="M592,90 Q597,8 587,7" stroke="url(#e)"/><path d="M598,90 Q592,14 600,5" stroke="url(#f)"/>
  </g>
  <!-- Front highlight wisps — brightest -->
  <g fill="none" stroke-linecap="round" opacity="0.7" stroke-width="0.5">
    <path d="M3,90 C10,35 -4,18 8,0" stroke="#e8f8d0"/><path d="M11,90 C4,40 15,15 6,2" stroke="#ddf2b8"/>
    <path d="M20,90 C26,32 14,20 22,1" stroke="#e8f8d0"/><path d="M28,90 C21,38 32,12 24,4" stroke="#eefadc"/>
    <path d="M37,90 C43,30 31,22 39,0" stroke="#e8f8d0"/><path d="M45,90 C38,36 49,10 41,3" stroke="#ddf2b8"/>
    <path d="M54,90 C60,28 48,24 56,2" stroke="#e8f8d0"/><path d="M62,90 C55,34 66,8 58,5" stroke="#eefadc"/>
    <path d="M71,90 C77,26 65,20 73,1" stroke="#e8f8d0"/><path d="M79,90 C72,32 83,12 75,4" stroke="#ddf2b8"/>
    <path d="M88,90 C94,24 82,22 90,0" stroke="#e8f8d0"/><path d="M96,90 C89,30 100,10 92,3" stroke="#eefadc"/>
    <path d="M105,90 C111,22 99,24 107,2" stroke="#e8f8d0"/><path d="M113,90 C106,28 117,8 109,5" stroke="#ddf2b8"/>
    <path d="M122,90 C128,20 116,20 124,1" stroke="#e8f8d0"/><path d="M130,90 C123,26 134,12 126,4" stroke="#eefadc"/>
    <path d="M139,90 C145,18 133,22 141,0" stroke="#e8f8d0"/><path d="M147,90 C140,24 151,10 143,3" stroke="#ddf2b8"/>
    <path d="M156,90 C162,16 150,24 158,2" stroke="#e8f8d0"/><path d="M164,90 C157,22 168,8 160,5" stroke="#eefadc"/>
    <path d="M173,90 C179,14 167,20 175,1" stroke="#e8f8d0"/><path d="M181,90 C174,20 185,12 177,4" stroke="#ddf2b8"/>
    <path d="M190,90 C196,12 184,22 192,0" stroke="#e8f8d0"/><path d="M198,90 C191,18 202,10 194,3" stroke="#eefadc"/>
    <path d="M210,90 C216,14 204,20 212,2" stroke="#e8f8d0"/><path d="M218,90 C211,20 222,8 214,5" stroke="#ddf2b8"/>
    <path d="M230,90 C236,12 224,22 232,1" stroke="#e8f8d0"/><path d="M238,90 C231,18 242,10 234,4" stroke="#eefadc"/>
    <path d="M250,90 C256,10 244,20 252,0" stroke="#e8f8d0"/><path d="M258,90 C251,16 262,12 254,3" stroke="#ddf2b8"/>
    <path d="M270,90 C276,8 264,22 272,2" stroke="#e8f8d0"/><path d="M278,90 C271,14 282,10 274,5" stroke="#eefadc"/>
    <path d="M290,90 C296,10 284,20 292,1" stroke="#e8f8d0"/><path d="M298,90 C291,16 302,12 294,4" stroke="#ddf2b8"/>
    <path d="M310,90 C316,8 304,22 312,0" stroke="#e8f8d0"/><path d="M318,90 C311,14 322,10 314,3" stroke="#eefadc"/>
    <path d="M330,90 C336,10 324,20 332,2" stroke="#e8f8d0"/><path d="M338,90 C331,16 342,8 334,5" stroke="#ddf2b8"/>
    <path d="M350,90 C356,8 344,22 352,1" stroke="#e8f8d0"/><path d="M358,90 C351,14 362,10 354,4" stroke="#eefadc"/>
    <path d="M370,90 C376,10 364,20 372,0" stroke="#e8f8d0"/><path d="M378,90 C371,16 382,12 374,3" stroke="#ddf2b8"/>
    <path d="M390,90 C396,8 384,22 392,2" stroke="#e8f8d0"/><path d="M398,90 C391,14 402,10 394,5" stroke="#eefadc"/>
    <path d="M410,90 C416,10 404,20 412,1" stroke="#e8f8d0"/><path d="M418,90 C411,16 422,8 414,4" stroke="#ddf2b8"/>
    <path d="M430,90 C436,8 424,22 432,0" stroke="#e8f8d0"/><path d="M438,90 C431,14 442,10 434,3" stroke="#eefadc"/>
    <path d="M450,90 C456,10 444,20 452,2" stroke="#e8f8d0"/><path d="M458,90 C451,16 462,12 454,5" stroke="#ddf2b8"/>
    <path d="M470,90 C476,8 464,22 472,1" stroke="#e8f8d0"/><path d="M478,90 C471,14 482,10 474,4" stroke="#eefadc"/>
    <path d="M490,90 C496,10 484,20 492,0" stroke="#e8f8d0"/><path d="M498,90 C491,16 502,8 494,3" stroke="#ddf2b8"/>
    <path d="M510,90 C516,8 504,22 512,2" stroke="#e8f8d0"/><path d="M518,90 C511,14 522,10 514,5" stroke="#eefadc"/>
    <path d="M530,90 C536,10 524,20 532,1" stroke="#e8f8d0"/><path d="M538,90 C531,16 542,12 534,4" stroke="#ddf2b8"/>
    <path d="M550,90 C556,8 544,22 552,0" stroke="#e8f8d0"/><path d="M558,90 C551,14 562,10 554,3" stroke="#eefadc"/>
    <path d="M570,90 C576,10 564,20 572,2" stroke="#e8f8d0"/><path d="M578,90 C571,16 582,8 574,5" stroke="#ddf2b8"/>
    <path d="M590,90 C596,8 584,22 592,1" stroke="#e8f8d0"/><path d="M598,90 C591,14 600,10 594,4" stroke="#eefadc"/>
  </g>
</svg>
